<svg width="30" height="30" viewBox="0 0 30 30" fill="none" xmlns="http://www.w3.org/2000/svg">
<path d="M29.01 15.005C29.01 22.7397 22.7397 29.01 15.005 29.01C7.27025 29.01 1 22.7397 1 15.005C1 7.27025 7.27025 1 15.005 1C22.7397 1 29.01 7.27025 29.01 15.005ZM2.01536 15.005C2.01536 22.179 7.83102 27.9946 15.005 27.9946C22.179 27.9946 27.9946 22.179 27.9946 15.005C27.9946 7.83102 22.179 2.01536 15.005 2.01536C7.83102 2.01536 2.01536 7.83102 2.01536 15.005Z" fill="#1461F8" fill-opacity="0.3"/>
<path d="M28.5328 18.6298C29.4941 15.042 28.9909 11.2192 27.1337 8.0025C25.2765 4.78577 22.2176 2.43856 18.6298 1.47721L18.367 2.45797C21.6946 3.34962 24.5318 5.52667 26.2544 8.51018C27.9769 11.4937 28.4437 15.0393 27.552 18.367L28.5328 18.6298Z" fill="#1461F8"/>
</svg>
